<svg width="597" height="469" viewBox="0 0 597 469" fill="none" xmlns="http://www.w3.org/2000/svg">
<path d="M595.076 340.765L460.999 269.389L238.707 145.013L209.311 127.82L60.3701 212.208L154.976 250.293L177.767 267.885L294.922 299.407L434.515 374.091L595.076 340.765Z" fill="#FBC800"/>
<path d="M596.024 339.576L461.814 268.29L239.277 144.068L209.856 126.894C209.485 126.68 209.029 126.68 208.658 126.881L59.5444 211.174C59.1509 211.402 58.9095 211.835 58.9318 212.305C58.9676 212.761 59.2583 213.168 59.6786 213.338L154.238 251.321L176.92 268.782C177.041 268.876 177.184 268.952 177.341 268.987L294.502 300.439L434.136 374.966C434.32 375.064 434.512 375.109 434.704 375.109C434.785 375.109 434.869 375.1 434.941 375.087L595.689 341.798C596.18 341.691 596.565 341.293 596.636 340.787C596.708 340.282 596.471 339.817 596.024 339.576ZM434.892 372.659L295.522 298.265C295.437 298.216 295.352 298.194 295.267 298.167L178.204 266.738L155.583 249.314C155.498 249.242 155.405 249.193 155.297 249.148L62.8979 212.028L209.234 129.309L238.074 146.143L460.651 270.391L591.942 340.13L434.892 372.659Z" fill="#1E1D19"/>
<path d="M91.9924 230.353L147.078 251.304L125.548 274.333L178.72 290.99L172.062 316.025L254.688 317.406L239.409 341.525L313.799 360.429L305.595 377.935L395.657 369.08L411.091 403.797L410.18 352.244L110.788 232.716L91.9924 230.353Z" fill="#1E1D19"/>
<path d="M180.152 318.347L188.211 334.174L368.456 341.51C368.456 341.51 377.621 340.348 382.952 333.973C388.278 327.606 475.294 190.827 475.294 190.827L469.892 179.565L180.152 318.347Z" fill="#FE6A3A"/>
<path d="M476.132 190.515L470.738 179.285C470.595 178.996 470.354 178.782 470.054 178.675C469.755 178.568 469.419 178.59 469.142 178.724L179.873 317.098C179.586 317.241 179.358 317.491 179.26 317.789C179.153 318.092 179.175 318.427 179.331 318.712L187.381 334.493C187.574 334.877 187.967 335.131 188.401 335.153L368.345 342.469C368.354 342.469 368.381 342.469 368.39 342.469C368.439 342.469 368.488 342.469 368.546 342.455C368.944 342.411 378.228 341.153 383.801 334.52C389.109 328.185 472.541 197.233 476.083 191.665C476.288 191.331 476.311 190.885 476.132 190.515ZM381.94 332.995C377.267 338.577 369.271 339.932 368.318 340.088L189.179 332.808L182.01 318.739L469.084 181.403L473.672 190.961C467.595 200.514 386.985 326.977 381.94 332.995Z" fill="#1E1D19"/>
<path d="M182.579 309.03C182.579 309.03 173.542 323.227 190.344 323.962C207.146 324.691 358.11 330.68 358.11 330.68C358.11 330.68 374.76 334.045 384.275 317.839C394.865 299.819 470.145 183.01 470.145 183.01C470.145 183.01 474.353 175.907 453.908 175.003C433.463 174.117 272.965 167.108 272.965 167.108L182.579 309.03Z" fill="#FE6A3A"/>
<path d="M470.907 179.577C469.142 176.314 463.355 174.443 453.744 174.024L273.108 166.15C272.674 166.15 272.277 166.342 272.04 166.699L181.804 308.239C181.621 308.516 177.448 315.166 180.039 320.13C181.585 323.103 185.115 324.723 190.513 324.964C206.956 325.683 353.705 331.499 357.932 331.664C358.317 331.727 359.657 331.928 361.614 331.928C367.325 331.928 378.196 330.2 385.215 318.26C395.657 300.508 470.16 185.004 470.942 183.795C471.385 183.076 471.863 181.349 470.907 179.577ZM468.9 182.558C468.145 183.723 393.615 299.285 383.155 317.072C374.201 332.289 358.951 329.446 358.303 329.316C358.241 329.303 358.169 329.29 358.111 329.29C356.596 329.232 207.22 323.308 190.625 322.59C186.134 322.398 183.292 321.197 182.162 319.054C180.218 315.336 183.748 309.654 183.82 309.547L273.684 168.582L453.624 176.421C464.977 176.912 467.975 179.3 468.757 180.679C469.343 181.683 468.914 182.523 468.9 182.558Z" fill="#1E1D19"/>
<path d="M410.096 108.419C409.62 87.1892 399.983 70.8349 389.407 59.1954C387.288 56.2251 385.57 40.3316 374.558 25.5787C370.521 20.1705 373.641 -1.90959 362.927 0.564132C351.978 3.10048 362.211 26.7194 363.048 28.0882C363.048 28.0882 351.8 13.8274 344.055 20.8326C337.587 26.6836 340.383 31.716 340.383 31.716C340.383 31.716 328.827 30.9735 328.863 42.9171C328.863 42.9171 317.388 48.5624 326.219 59.8574C327.488 61.4768 327.261 62.8366 327.261 62.8366C323.09 63.4226 318.603 64.626 315.069 65.7174C310.093 67.2562 304.774 73.4204 305.815 78.5378C308.183 90.0834 328.445 77.4195 336.906 81.0831C343.338 83.8745 353.042 84.1965 359.246 84.0758C363.359 92.329 366.755 104.165 365.558 113.971C361.027 151.452 322.418 152.392 322.418 152.392L349.338 198.73C388.846 189.386 411.173 156.368 410.096 108.419Z" fill="#FE6A3A"/>
<path d="M394.74 171.31C406.062 155.532 411.864 134.524 411.285 109.424C410.864 91.1623 403.775 74.3796 390.18 59.549C389.66 58.7717 389.037 56.6231 388.301 54.1528C386.36 47.5416 383.123 36.4767 375.236 26.0149C373.985 24.3487 373.442 20.3194 372.922 16.4063C372.106 10.273 371.25 3.92979 367.613 1.4193C366.134 0.400817 364.349 0.12386 362.278 0.5929C359.87 1.14681 358.148 2.5852 357.184 4.8902C355.032 9.9871 357.148 18.3003 359.161 23.9422C356.476 21.6148 352.889 19.2116 349.239 18.9123C346.804 18.7112 344.603 19.4528 342.737 21.119C337.859 25.4878 337.738 29.5215 338.195 31.7282C336.245 31.8935 333.007 32.5546 330.492 34.9088C328.322 36.9323 327.165 39.7779 327.049 43.3515C325.591 44.227 322.184 46.666 321.242 50.7534C320.462 54.1886 321.592 57.8694 324.627 61.7111C324.986 62.1667 325.192 62.5866 325.3 62.935C321.157 63.6051 316.906 64.7799 313.969 65.6823C308.405 67.3842 302.639 74.1027 303.832 79.8741C304.267 81.9513 305.253 83.5103 306.795 84.5064C310.441 86.8695 316.27 85.583 322.421 84.2295C327.515 83.1127 332.779 81.9602 335.859 83.2824C342.145 85.9805 351.274 86.4719 358.099 86.3781C361.784 93.9721 365.192 105.225 364.013 114.873C359.632 150.815 323.264 152.146 321.726 152.182C321.305 152.196 320.906 152.423 320.7 152.794C320.498 153.169 320.498 153.625 320.713 153.982L347.831 200.261C348.046 200.632 348.445 200.86 348.867 200.86C348.961 200.86 349.046 200.846 349.14 200.824C364.192 197.295 376.765 190.483 386.589 180.847L394.78 189.33C394.78 189.33 428.974 193.096 454.213 176.286L394.74 171.31ZM366.407 115.146C367.685 104.684 363.892 92.5203 359.933 84.6136C359.726 84.1937 359.291 83.9391 358.825 83.9525C353.368 84.0731 343.266 83.8319 336.823 81.0757C333.021 79.4408 327.385 80.6782 321.919 81.8798C316.512 83.0636 310.925 84.2875 308.118 82.4784C307.132 81.8396 306.504 80.8345 306.217 79.3827C305.311 75.005 310.212 69.3542 314.705 67.9605C317.834 67 322.471 65.7269 326.806 65.115C327.322 65.0435 327.735 64.6504 327.829 64.1322C327.865 63.9401 328.12 62.189 326.542 60.2101C323.986 56.9715 323 53.9697 323.605 51.285C324.52 47.2646 328.743 45.1428 328.779 45.116C329.192 44.9105 329.456 44.4906 329.456 44.035C329.443 40.8231 330.344 38.3395 332.142 36.6465C335.137 33.8143 339.738 34.0556 339.774 34.0556C340.208 34.0913 340.63 33.8635 340.859 33.5016C341.101 33.1443 341.11 32.6618 340.908 32.2777C340.809 32.099 338.688 27.9491 344.351 22.8745C345.723 21.6506 347.252 21.119 349.033 21.2664C355.139 21.7712 361.663 29.8789 361.726 29.9637C362.121 30.4551 362.834 30.5623 363.349 30.205C363.869 29.8431 364.026 29.1373 363.69 28.5968C363.049 27.5381 356.511 12.5557 359.403 5.76574C360.063 4.20227 361.184 3.26866 362.811 2.8979C364.192 2.5718 365.313 2.72815 366.228 3.35354C368.985 5.26097 369.806 11.3317 370.514 16.6832C371.106 21.0833 371.658 25.2465 373.299 27.422C380.917 37.5354 384.087 48.3456 385.974 54.8005C386.88 57.8828 387.481 59.9198 388.239 60.9785C388.266 61.0142 388.301 61.0499 388.324 61.0857C401.546 75.4964 408.456 91.7654 408.855 109.45C409.505 137.847 401.824 160.871 387.082 176.755C373.949 164.435 363.798 138.133 361.363 131.451C363.82 126.979 365.614 121.601 366.407 115.146ZM323.757 154.429C328.335 153.96 340.029 152.039 350.068 144.544L384.88 179.083C375.55 188.249 363.663 194.789 349.454 198.269L323.757 154.429ZM234.499 224.16L290.551 295.784C216.16 312.402 222.447 244.065 222.447 244.065L234.499 224.16Z" fill="#1E1D19"/>
<path d="M400.845 195.915L400.952 195.865L240.306 35.8642C238.377 32.1466 227.701 33.8934 216.471 39.7521C205.242 45.6107 197.688 53.3953 199.618 57.1129L242.25 274.433L242.477 274.312C242.549 277.608 243.259 280.712 244.72 283.516C255.266 303.811 299.47 301.657 343.459 278.679C387.449 255.701 414.571 220.635 404.025 200.34C403.185 198.714 402.104 197.249 400.845 195.915Z" fill="#FE6A3A"/>
<path d="M404.836 199.783C404.053 198.294 403.046 196.854 401.828 195.499C401.77 195.316 401.671 195.15 401.528 195.007L240.652 35.3814C239.363 33.1945 236.046 32.461 231.045 33.275C226.403 34.0353 220.79 36.0389 215.239 38.9369C209.683 41.8305 204.812 45.2652 201.545 48.6284C197.999 52.2689 196.701 55.404 197.757 57.7072L240.46 274.56C240.496 274.753 240.581 274.932 240.697 275.088C240.881 278.317 241.659 281.309 243.043 283.952C248.079 293.621 260.524 298.389 276.859 298.389C295.701 298.389 319.731 292.06 343.605 279.641C365.079 268.469 383.281 254.104 394.844 239.198C406.627 224.023 410.172 210.029 404.836 199.783ZM392.955 237.717C381.598 252.36 363.683 266.488 342.513 277.503C299.09 300.097 255.425 302.485 245.183 282.834C243.849 280.289 243.141 277.369 243.07 274.176C243.056 273.84 242.913 273.514 242.658 273.299L200.09 57.0855C200.063 56.9782 200.027 56.8664 199.982 56.7591C199.333 55.5247 200.596 53.0381 203.277 50.2966C206.375 47.1168 211.031 43.8341 216.367 41.0613C221.703 38.284 227.052 36.3654 231.444 35.6453C235.231 35.0326 237.984 35.4172 238.633 36.665C238.691 36.7723 238.763 36.8707 238.848 36.9646L399.451 196.326C399.509 196.483 399.594 196.613 399.702 196.733C400.942 198.044 401.949 199.448 402.705 200.893C407.576 210.262 404.115 223.339 392.955 237.717Z" fill="#1E1D19"/>
<path d="M238.108 41.8018C238.38 42.3281 238.539 42.9051 238.588 43.5375C238.638 44.17 238.579 44.8393 238.407 45.5502C238.235 46.2611 237.954 46.9997 237.568 47.7614C237.183 48.5277 236.693 49.2986 236.108 50.0834C235.519 50.8728 234.843 51.6529 234.082 52.4285C233.315 53.2086 232.477 53.9657 231.565 54.7089C230.649 55.4475 229.684 56.1584 228.654 56.8324C227.63 57.5064 226.569 58.1342 225.467 58.7204C224.365 59.3021 223.25 59.8283 222.121 60.2946C220.987 60.7654 219.863 61.1671 218.743 61.504C217.623 61.841 216.531 62.1042 215.47 62.298C214.404 62.4873 213.388 62.6027 212.418 62.6443C211.448 62.6812 210.546 62.6443 209.711 62.5289C208.877 62.4134 208.124 62.2242 207.453 61.9611C206.782 61.6933 206.207 61.3609 205.731 60.9593C205.25 60.5531 204.874 60.0868 204.606 59.5606C204.334 59.0297 204.175 58.4527 204.125 57.8203C204.076 57.1878 204.135 56.5185 204.307 55.8076C204.479 55.0967 204.76 54.3581 205.146 53.5964C205.531 52.8347 206.021 52.0592 206.606 51.2744C207.19 50.4896 207.866 49.7049 208.632 48.9293C209.399 48.1492 210.237 47.3921 211.149 46.6489C212.06 45.9103 213.03 45.204 214.06 44.5254C215.084 43.8514 216.145 43.2236 217.247 42.642C218.349 42.0557 219.464 41.5295 220.593 41.0632C221.727 40.5924 222.851 40.1907 223.971 39.8538C225.091 39.5168 226.183 39.2536 227.244 39.0598C228.31 38.8705 229.326 38.7551 230.296 38.7182C231.266 38.6766 232.164 38.7135 233.003 38.8289C233.837 38.9444 234.589 39.1336 235.261 39.4014C235.932 39.6645 236.503 39.9969 236.983 40.4031C237.464 40.8047 237.836 41.271 238.108 41.8018Z" fill="#1E1D19"/>
<path d="M147.148 251.434L150.757 283.953H181.699L191.899 326.759L262.212 307.737L265.956 350.529L316.081 356.488L323.555 388.569L395.661 369.274L411.091 424.878L287.253 385.77L150.757 312.493L105.408 269.688L147.148 251.434Z" fill="white"/>
<path d="M396.682 367.816L324.638 387.132L317.25 355.395L267.263 349.44L263.485 306.124L192.991 325.221L182.865 282.639H152.049L148.377 249.518L103.491 269.17L150.155 313.279L150.276 313.386L286.877 386.868L413.008 426.795L396.682 367.816ZM151.687 311.43L107.788 269.927L146.363 253.028L149.901 285.043H180.971L191.227 328.194L261.341 309.191L265.048 351.594L315.294 357.585L322.865 390.101L395.002 370.762L409.519 423.173L287.909 384.701L151.687 311.43Z" fill="#1E1D19"/>
<path d="M2.87476 245.489L385.409 467.042L521.048 385.344L595.076 340.765L410.255 353.601L411.144 403.868L395.72 369.069L305.723 377.946L316.177 356.261L239.585 341.45L262.332 307.422L172.286 315.891L181.855 283.597L125.805 274.102L147.319 251.02L92.2734 230.02L60.4481 212.146L2.87476 245.489Z" fill="#FBC800"/>
<path d="M410.313 352.247L409.173 352.319L409.978 397.734L396.591 367.606L307.732 376.334L317.949 355.212L241.499 340.465L263.35 305.817L173.777 314.415L183.238 282.58L127.964 273.248L149.207 250.53L92.4932 228.947L60.121 210.838L0.0849609 245.508L384.916 467.736L385.529 468.085L521.975 386.148L595.796 340.51L410.313 352.247ZM520.723 384.105L385.506 465.299L4.88713 245.508L60.1479 213.601L91.4156 231.111L145.018 251.522L123.162 274.894L180.162 284.511L170.459 317.156L259.103 308.567L237.488 342.155L314.422 356.987L303.699 379.155L395.088 370.173L412.571 409.529L411.601 354.577L586.348 343.537L520.723 384.105Z" fill="#1E1D19"/>
<path d="M150.954 230.634L205.644 270.588H162.144L154.473 243.186L86.2539 232.828L56.5371 216.396L66.0106 211.188L153.896 241.162L150.954 230.634ZM585.91 337.764L564.169 340.725L454.037 332.926L411.954 354.949L412.388 354.927L411.954 354.963L460.533 371.216L562.631 345.706L561.71 348.711L583.236 345.465L591.243 340.257L585.91 337.764Z" fill="#FBC800"/>
<path d="M409.175 349.176L412.881 359.717L423.549 351.681L409.175 349.176Z" fill="#EDBF2B"/>
<path d="M202.192 72.1339C202.192 72.1339 237 74.5635 250.521 46.3679L265.303 61.5012C265.303 61.5012 252.622 96.5372 206.368 93.4666L202.192 72.1339ZM213.66 130.56C271.209 137.723 291.383 87.0475 291.383 87.0475L274.258 70.0002C255.229 112.912 208.89 106.327 208.89 106.327L213.66 130.56ZM244.637 157.505C246.953 169.568 255.408 178.08 263.514 176.502C271.62 174.938 276.302 163.884 273.986 151.821C271.665 139.758 263.215 131.246 255.108 132.824C247.002 134.388 242.321 145.442 244.637 157.505ZM288.2 131.174C290.516 143.237 298.971 151.749 307.077 150.171C315.183 148.607 319.865 137.557 317.548 125.49C315.228 113.428 306.777 104.915 298.671 106.493C290.565 108.071 285.884 119.125 288.2 131.174Z" fill="white"/>
<path d="M266.502 61.9051C266.658 61.4718 266.551 60.9805 266.226 60.6545L251.485 45.5754C251.213 45.3029 250.816 45.1689 250.433 45.227C250.049 45.2895 249.715 45.5397 249.545 45.8881C236.579 72.9062 202.849 70.9141 202.514 70.8873C202.14 70.865 201.783 71.0079 201.533 71.2982C201.279 71.5752 201.185 71.9593 201.257 72.3166L205.421 93.564C205.528 94.091 205.974 94.4886 206.523 94.5332C208.462 94.6672 210.357 94.7253 212.176 94.7253C254.111 94.7387 266.373 62.2535 266.502 61.9051ZM207.602 92.2062L203.901 73.335C210.727 73.335 238.505 72.0665 250.959 48.4563L263.974 61.7711C261.905 66.5458 248.016 94.4618 207.602 92.2062ZM292.497 87.4091C292.679 86.9624 292.568 86.4488 292.234 86.1138L275.161 69.1275C274.885 68.8506 274.479 68.73 274.095 68.8014C273.712 68.8729 273.377 69.1364 273.221 69.4982C254.838 110.899 209.755 105.056 209.292 104.985C208.908 104.922 208.525 105.065 208.248 105.342C207.985 105.619 207.865 106.017 207.949 106.401L212.689 130.547C212.787 131.052 213.206 131.449 213.719 131.507C217.518 131.976 221.156 132.204 224.643 132.204C274.033 132.204 292.305 87.887 292.497 87.4091ZM214.869 129.229L210.607 107.513C219.012 108.161 257.246 108.92 274.679 72.0397L289.946 87.2394C287.231 93.2871 266.373 135.143 214.869 129.229ZM275.197 151.276C272.753 138.623 263.666 129.707 254.972 131.4C250.66 132.24 247.115 135.456 244.984 140.481C242.924 145.34 242.425 151.348 243.597 157.395C244.757 163.443 247.45 168.83 251.177 172.573C254.374 175.784 258.026 177.49 261.642 177.49C262.373 177.49 263.1 177.419 263.831 177.285C272.526 175.592 277.64 163.934 275.197 151.276ZM263.354 174.922C262.083 175.163 260.79 175.128 259.497 174.837C265.806 170.183 263.22 158.86 263.22 158.86L259.328 158.369L262.659 155.908C261.459 147.283 253.679 138.091 251.44 135.612C252.649 134.688 253.977 134.049 255.404 133.763C255.975 133.656 256.55 133.593 257.125 133.593C264.001 133.593 270.8 141.271 272.825 151.745C275.027 163.081 270.778 173.484 263.354 174.922ZM287.026 131.159C288.185 137.207 290.883 142.593 294.606 146.336C297.803 149.548 301.454 151.254 305.07 151.254C305.802 151.254 306.533 151.182 307.264 151.048C311.571 150.209 315.116 146.993 317.247 141.968C319.307 137.108 319.811 131.101 318.638 125.053C317.475 119.005 314.782 113.619 311.059 109.876C307.215 106.017 302.725 104.346 298.413 105.177C294.102 106.017 290.557 109.228 288.426 114.258C286.357 119.117 285.866 125.125 287.026 131.159ZM298.855 107.513C299.421 107.406 299.992 107.348 300.58 107.348C303.563 107.348 306.627 108.799 309.355 111.555C312.744 114.963 315.201 119.917 316.28 125.495C317.354 131.074 316.913 136.595 315.031 141.021C313.226 145.291 310.292 148.016 306.796 148.686C305.525 148.927 304.232 148.891 302.939 148.601C309.248 143.947 306.662 132.624 306.662 132.624L302.77 132.133L306.1 129.672C304.901 121.047 297.12 111.859 294.882 109.376C296.104 108.438 297.433 107.803 298.855 107.513ZM321.403 164.667C321.233 165.359 317.118 181.917 303.586 189.76C299.047 192.391 294.008 193.708 288.497 193.708C284.988 193.708 281.301 193.155 277.435 192.078C276.775 194.718 275.17 197.224 271.973 198.854C271.795 198.939 271.616 198.988 271.433 198.988C271.005 198.988 270.573 198.747 270.368 198.327C270.069 197.737 270.31 197.018 270.898 196.719C273.939 195.174 275.46 192.507 275.424 188.813C275.388 185.923 274.403 183.511 274.394 183.489C274.14 182.877 274.43 182.167 275.041 181.917C275.651 181.662 276.356 181.953 276.61 182.564C277.337 184.329 277.961 186.968 277.805 189.702C287.195 192.364 295.457 191.694 302.377 187.688C315.009 180.367 319.031 164.256 319.08 164.1C319.236 163.452 319.896 163.059 320.529 163.215C321.162 163.381 321.559 164.028 321.403 164.667ZM366.784 44.7848C365.817 45.7943 364.653 46.3079 363.338 46.3347C363.311 46.3347 363.289 46.3347 363.275 46.3347C362.736 46.3347 362.21 46.223 361.706 46.0801C361.839 46.4419 361.96 46.7992 362.054 47.1744C362.927 50.5556 362.174 53.7358 360.043 55.6787C358.87 56.7462 357.457 57.1527 355.999 57.1527C354.558 57.1527 353.074 56.7596 351.723 56.2281C352.284 57.3581 352.596 58.3408 352.761 59.0956C353.1 60.6455 353.051 62.1552 352.703 63.5488C354.893 62.8386 357.911 62.517 360.966 64.326C361.541 64.6654 361.719 65.3935 361.385 65.9697C361.05 66.5458 360.319 66.729 359.744 66.3895C355.397 63.8123 350.893 67.0372 350.8 67.1086C350.523 67.4123 350.211 67.6848 349.877 67.9483C348.918 68.6942 347.696 68.9935 346.332 68.9935C340.272 68.9935 331.426 62.9011 330.24 62.0614C329.701 61.6773 329.571 60.9314 329.955 60.3909C330.334 59.8549 331.078 59.721 331.618 60.1051C336.563 63.5935 345.507 68.2967 348.419 66.0545C350.247 64.6386 351.005 62.2267 350.43 59.6138C349.912 57.2509 346.822 49.2112 328.889 45.1332C328.243 44.9903 327.832 44.3426 327.989 43.695C328.131 43.0473 328.769 42.6364 329.424 42.7927C339.171 45.0126 344.883 48.3849 348.227 51.6008C350.273 53.1105 355.829 56.2772 358.437 53.9144C359.9 52.5834 360.39 50.2921 359.744 47.7863C359.146 45.4593 355.972 37.5624 340.214 33.7971C339.568 33.6408 339.171 32.9931 339.327 32.3589C339.483 31.7112 340.143 31.3137 340.767 31.47C349.449 33.5425 356.106 37.3971 359.637 42.1942C360.248 42.757 361.826 43.9317 363.289 43.9317C363.302 43.9317 363.311 43.9317 363.324 43.9317C363.984 43.9228 364.559 43.6592 365.085 43.1188C365.839 42.3282 366.713 40.9346 366.508 38.7862C366.222 35.6195 363.65 30.2596 353.065 22.6754C352.525 22.2913 352.405 21.5364 352.788 20.996C353.172 20.4555 353.925 20.3349 354.451 20.719C363.422 27.1375 368.412 33.3058 368.893 38.5584C369.156 41.6314 367.886 43.6324 366.784 44.7848ZM331.007 66.2332C330.815 66.6888 330.374 66.9568 329.906 66.9568C329.75 66.9568 329.58 66.9166 329.424 66.8585C329.38 66.8451 325.273 65.0942 321.068 66.1037C320.422 66.26 319.775 65.8625 319.619 65.2148C319.463 64.5672 319.86 63.9195 320.507 63.7632C325.523 62.5661 330.191 64.5672 330.383 64.652C330.994 64.9289 331.27 65.6213 331.007 66.2332ZM362.125 82.6924C362.486 83.2463 362.33 83.9877 361.782 84.3495C359.659 85.7431 356.498 86.1138 356.369 86.1227C356.32 86.1227 356.27 86.1361 356.235 86.1361C355.637 86.1361 355.12 85.6805 355.049 85.0686C354.977 84.4076 355.446 83.8225 356.106 83.7376C356.128 83.7376 358.848 83.4115 360.488 82.3351C361.024 81.9867 361.768 82.143 362.125 82.6924ZM251.427 272.967C251.57 273.615 251.164 274.254 250.517 274.41C250.433 274.432 250.339 274.432 250.254 274.432C249.701 274.432 249.211 274.048 249.091 273.494L220.149 145.112C220.006 144.465 220.416 143.826 221.063 143.67C221.709 143.527 222.342 143.938 222.498 144.585L251.427 272.967ZM254.035 250.054C254.182 250.702 253.772 251.34 253.126 251.497C253.045 251.519 252.947 251.519 252.863 251.519C252.314 251.519 251.824 251.135 251.703 250.586L238.198 190.671C238.051 190.024 238.461 189.389 239.107 189.233C239.754 189.09 240.387 189.497 240.543 190.135L254.035 250.054Z" fill="#1E1D19"/>
</svg>
