<svg width="44" height="44" viewBox="0 0 44 44" fill="none" xmlns="http://www.w3.org/2000/svg">
<path d="M11.0843 1H32.4988C32.6638 1 32.8288 1.00404 32.9938 1.01213C33.1587 1.02022 33.3233 1.03235 33.4875 1.04852C33.6516 1.0651 33.8154 1.08491 33.9787 1.10917C34.1421 1.13343 34.3046 1.16174 34.4664 1.19408C34.6285 1.22603 34.7894 1.26242 34.9496 1.30245C35.1097 1.34248 35.2686 1.38655 35.4267 1.43427C35.5848 1.48238 35.7413 1.53414 35.8969 1.58994C36.0522 1.64533 36.2063 1.70477 36.3587 1.76785C36.5111 1.83093 36.662 1.89805 36.8112 1.9684C36.9604 2.03916 37.108 2.11316 37.2535 2.1912C37.3991 2.26883 37.5426 2.35011 37.6841 2.43502C37.8257 2.51993 37.9652 2.60848 38.1022 2.69986C38.2397 2.79165 38.3748 2.88667 38.507 2.98493C38.6396 3.08318 38.7698 3.18508 38.8976 3.2898C39.0249 3.39453 39.1499 3.50208 39.2724 3.61287C39.3945 3.72366 39.5142 3.83769 39.6307 3.95414C39.7475 4.071 39.8615 4.19068 39.9723 4.31279C40.0831 4.43531 40.1907 4.56025 40.2954 4.68762C40.4001 4.81539 40.502 4.94559 40.6003 5.07822C40.6985 5.21044 40.7936 5.34549 40.8853 5.48297C40.9767 5.62004 41.0653 5.75954 41.1502 5.90106C41.2351 6.04258 41.3164 6.18612 41.394 6.33169C41.472 6.47725 41.546 6.62483 41.6168 6.77404C41.6872 6.92324 41.7543 7.07406 41.8174 7.2265C41.8804 7.37894 41.9399 7.53299 41.9953 7.68826C42.0511 7.84393 42.1028 8.00042 42.1505 8.15851C42.1986 8.31661 42.2427 8.47552 42.2828 8.63564C42.3228 8.79576 42.3592 8.95669 42.3911 9.11883C42.4235 9.28057 42.4518 9.44312 42.476 9.60647C42.5003 9.76983 42.5201 9.93358 42.5363 10.0977C42.5525 10.2619 42.565 10.4265 42.5731 10.5915C42.5812 10.7564 42.5852 10.9214 42.5852 11.0864V32.4988C42.5852 32.6638 42.5812 32.8288 42.5731 32.9938C42.565 33.1587 42.5529 33.3233 42.5363 33.4875C42.5201 33.6516 42.5003 33.8154 42.476 33.9787C42.4518 34.1421 42.4235 34.3046 42.3911 34.4664C42.3592 34.6285 42.3228 34.7894 42.2828 34.9496C42.2427 35.1097 42.1986 35.2686 42.1509 35.4267C42.1028 35.5848 42.0511 35.7413 41.9953 35.8969C41.9399 36.0522 41.8804 36.2063 41.8174 36.3587C41.7543 36.5111 41.6872 36.662 41.6168 36.8112C41.546 36.9604 41.472 37.108 41.394 37.2535C41.3164 37.3991 41.2351 37.5426 41.1502 37.6841C41.0653 37.8257 40.9767 37.9652 40.8853 38.1022C40.7936 38.2397 40.6985 38.3748 40.6003 38.507C40.502 38.6396 40.4001 38.7698 40.2954 38.8976C40.1907 39.025 40.0831 39.1499 39.9723 39.2724C39.8615 39.3945 39.7475 39.5142 39.6307 39.6307C39.5142 39.7475 39.3945 39.8615 39.2724 39.9723C39.1499 40.0831 39.0249 40.1907 38.8976 40.2954C38.7698 40.4001 38.6396 40.5016 38.507 40.6003C38.3748 40.6985 38.2397 40.7936 38.1022 40.8853C37.9652 40.9767 37.8257 41.0653 37.6841 41.1502C37.5426 41.2351 37.3991 41.3164 37.2535 41.394C37.108 41.472 36.9604 41.546 36.8112 41.6168C36.662 41.6872 36.5111 41.7543 36.3587 41.8174C36.2063 41.8804 36.0522 41.9399 35.8969 41.9953C35.7413 42.0511 35.5848 42.1028 35.4267 42.1505C35.2686 42.1987 35.1097 42.2427 34.9496 42.2828C34.7894 42.3228 34.6285 42.3592 34.4664 42.3911C34.3046 42.4235 34.1421 42.4518 33.9787 42.476C33.8154 42.4999 33.6516 42.5201 33.4875 42.5363C33.3233 42.5525 33.1587 42.565 32.9938 42.5731C32.8288 42.5812 32.6638 42.5852 32.4988 42.5852H11.0843C10.9194 42.5852 10.7544 42.5812 10.5898 42.5731C10.4249 42.565 10.2603 42.5529 10.0961 42.5363C9.93197 42.5201 9.76821 42.5003 9.60485 42.476C9.4415 42.4518 9.27895 42.4235 9.11721 42.3911C8.95507 42.3592 8.79414 42.3228 8.63402 42.2828C8.47431 42.2427 8.31499 42.1987 8.1573 42.1509C7.9992 42.1028 7.84272 42.0511 7.68705 41.9957C7.53178 41.9399 7.37772 41.8804 7.22529 41.8174C7.07285 41.7543 6.92203 41.6876 6.77283 41.6168C6.62362 41.5464 6.47644 41.472 6.33088 41.3944C6.18531 41.3164 6.04177 41.2351 5.90025 41.1502C5.75873 41.0653 5.61923 40.9771 5.48175 40.8853C5.34468 40.794 5.20963 40.6989 5.07741 40.6007C4.94478 40.502 4.81458 40.4005 4.68722 40.2958C4.55944 40.1915 4.4345 40.0835 4.31239 39.9727C4.18987 39.8619 4.07059 39.7479 3.95374 39.6315C3.83729 39.5146 3.72326 39.3953 3.61247 39.2728C3.50168 39.1507 3.39372 39.0258 3.2894 38.898C3.18467 38.7706 3.08318 38.6404 2.98452 38.5078C2.88627 38.3752 2.79125 38.2405 2.69986 38.1035C2.60808 37.966 2.51953 37.8265 2.43502 37.685C2.35011 37.5434 2.26883 37.3999 2.19079 37.2543C2.11316 37.1088 2.03876 36.9616 1.96841 36.8124C1.89765 36.6632 1.83093 36.5124 1.76785 36.3599C1.70477 36.2075 1.64533 36.0534 1.58953 35.8982C1.53414 35.7425 1.48238 35.586 1.43427 35.4279C1.38655 35.2702 1.34248 35.1109 1.30245 34.9512C1.26242 34.7911 1.22603 34.6297 1.19409 34.468C1.16174 34.3063 1.13343 34.1437 1.10917 33.9804C1.08491 33.817 1.06469 33.6532 1.04852 33.4891C1.03235 33.3249 1.02022 33.1603 1.01213 32.9954C1.00404 32.8308 1 32.6658 1 32.5009V11.0843C1 10.9194 1.00404 10.7544 1.01213 10.5898C1.02022 10.4249 1.03235 10.2603 1.04852 10.0961C1.06469 9.93197 1.08491 9.76821 1.10917 9.60485C1.13343 9.4415 1.16174 9.27895 1.19409 9.11721C1.22603 8.95507 1.26242 8.79414 1.30245 8.63402C1.34248 8.47431 1.38655 8.31499 1.43427 8.1573C1.48238 7.9992 1.53414 7.84272 1.58953 7.68705C1.64533 7.53178 1.70477 7.37773 1.76785 7.22529C1.83093 7.07285 1.89765 6.92203 1.96841 6.77283C2.03876 6.62362 2.11316 6.47644 2.19079 6.33088C2.26883 6.18531 2.35011 6.04177 2.43502 5.90025C2.51953 5.75873 2.60808 5.61923 2.69986 5.48175C2.79125 5.34468 2.88627 5.20963 2.98452 5.07741C3.08318 4.94478 3.18467 4.81459 3.2894 4.68722C3.39372 4.55944 3.50168 4.4345 3.61247 4.31239C3.72326 4.18987 3.83729 4.07059 3.95374 3.95373C4.07059 3.83728 4.18987 3.72326 4.31239 3.61247C4.4345 3.50168 4.55944 3.39372 4.68722 3.28899C4.81458 3.18467 4.94478 3.08318 5.07741 2.98452C5.20963 2.88627 5.34468 2.79124 5.48175 2.69986C5.61923 2.60808 5.75873 2.51953 5.90025 2.43502C6.04177 2.35011 6.18531 2.26883 6.33088 2.19079C6.47644 2.11316 6.62362 2.03876 6.77283 1.9684C6.92203 1.89764 7.07285 1.83093 7.22529 1.76785C7.37772 1.70477 7.53178 1.64533 7.68705 1.58953C7.84272 1.53414 7.9992 1.48238 8.1573 1.43427C8.31499 1.38655 8.47431 1.34248 8.63402 1.30245C8.79414 1.26242 8.95507 1.22603 9.11721 1.19408C9.27895 1.16174 9.4415 1.13343 9.60485 1.10917C9.76821 1.08491 9.93197 1.06469 10.0961 1.04852C10.2603 1.03235 10.4249 1.02022 10.5898 1.01213C10.7544 1.00404 10.9194 1 11.0843 1Z" stroke="#F2F2F2" stroke-width="1.5" stroke-linecap="round" stroke-linejoin="round"/>
<path d="M32.4697 21.7925C32.4697 21.9674 32.4653 22.1418 32.4565 22.3163C32.4477 22.4908 32.4345 22.6652 32.4169 22.8389C32.3993 23.013 32.3772 23.1863 32.3512 23.3592C32.3247 23.5321 32.2939 23.7042 32.2591 23.8755C32.2242 24.0469 32.1849 24.2174 32.1413 24.3868C32.0976 24.5562 32.05 24.7248 31.9979 24.8918C31.9458 25.0593 31.8893 25.2252 31.8292 25.3895C31.7688 25.5542 31.7043 25.7169 31.6354 25.8785C31.5669 26.0401 31.4944 26.1997 31.4175 26.3578C31.341 26.5155 31.2604 26.6716 31.1759 26.8258C31.0914 26.9799 31.0029 27.1317 30.9108 27.2816C30.8186 27.4315 30.7225 27.579 30.6227 27.7246C30.5234 27.8698 30.4201 28.0126 30.3131 28.1528C30.2066 28.2933 30.096 28.431 29.9822 28.5661C29.8685 28.7011 29.7515 28.8334 29.6309 28.963C29.5104 29.0922 29.387 29.219 29.26 29.3424C29.1334 29.4661 29.0033 29.5863 28.8707 29.7038C28.7377 29.8213 28.6019 29.9352 28.4633 30.0461C28.3247 30.1569 28.1833 30.2642 28.0391 30.3685C27.8953 30.4727 27.7487 30.5734 27.5997 30.6702C27.4503 30.7673 27.2989 30.861 27.145 30.9508C26.9912 31.0405 26.8354 31.1264 26.6772 31.2091C26.519 31.2915 26.3587 31.3699 26.1969 31.4445C26.0347 31.5194 25.8708 31.5901 25.705 31.6568C25.5392 31.7239 25.3721 31.7868 25.2031 31.8457C25.0345 31.9043 24.8642 31.9593 24.6924 32.01C24.5209 32.0608 24.3479 32.1072 24.174 32.1498C24.0002 32.1923 23.8252 32.2306 23.6493 32.2645C23.4735 32.2989 23.2968 32.3285 23.1194 32.3543C22.9419 32.3796 22.7641 32.4011 22.5854 32.4183C22.4071 32.4355 22.2285 32.4483 22.049 32.4569C21.87 32.4655 21.6909 32.4698 21.5115 32.4698C21.332 32.4698 21.153 32.4655 20.9739 32.4569C20.7945 32.4483 20.6158 32.4355 20.4376 32.4183C20.2589 32.4011 20.0811 32.3796 19.9036 32.3543C19.7262 32.3285 19.5495 32.2989 19.3737 32.2645C19.1978 32.2306 19.0228 32.1923 18.8489 32.1498C18.6751 32.1072 18.502 32.0608 18.3306 32.01C18.1588 31.9593 17.9885 31.9043 17.8199 31.8457C17.6508 31.7868 17.4838 31.7239 17.318 31.6568C17.1521 31.5901 16.9883 31.5194 16.8261 31.4445C16.6642 31.3699 16.504 31.2915 16.3458 31.2091C16.1876 31.1264 16.0318 31.0405 15.8779 30.9508C15.7241 30.861 15.5727 30.7673 15.4233 30.6702C15.2743 30.5734 15.1277 30.4727 14.9839 30.3685C14.8397 30.2642 14.6983 30.1569 14.5597 30.0461C14.4211 29.9352 14.2853 29.8213 14.1523 29.7038C14.0197 29.5863 13.8895 29.4661 13.763 29.3424C13.636 29.219 13.5126 29.0922 13.392 28.963C13.2715 28.8334 13.1545 28.7011 13.0407 28.5661C12.927 28.431 12.8164 28.2933 12.7099 28.1528C12.6029 28.0126 12.4996 27.8698 12.4002 27.7246C12.3005 27.579 12.2044 27.4315 12.1122 27.2816C12.0201 27.1317 11.9316 26.9799 11.847 26.8258C11.7625 26.6716 11.682 26.5155 11.6055 26.3578C11.5286 26.1997 11.4561 26.0401 11.3876 25.8785C11.3187 25.7169 11.2542 25.5542 11.1937 25.3895C11.1336 25.2252 11.0772 25.0593 11.0251 24.8918C10.973 24.7248 10.9253 24.5562 10.8817 24.3868C10.838 24.2174 10.7988 24.0469 10.7639 23.8755C10.7287 23.7042 10.6982 23.5321 10.6718 23.3592C10.6458 23.1863 10.6237 23.013 10.6061 22.8389C10.5885 22.6652 10.5753 22.4908 10.5664 22.3163C10.5576 22.1418 10.5532 21.9674 10.5532 21.7925C10.5532 21.6177 10.5576 21.4432 10.5664 21.2687C10.5753 21.0939 10.5885 20.9198 10.6061 20.7461C10.6237 20.5721 10.6458 20.3988 10.6718 20.2259C10.6982 20.053 10.7287 19.8809 10.7639 19.7095C10.7988 19.5382 10.838 19.3676 10.8817 19.1982C10.9253 19.0288 10.973 18.8602 11.0251 18.6932C11.0772 18.5258 11.1336 18.3599 11.1937 18.1956C11.2542 18.0309 11.3187 17.8681 11.3876 17.7065C11.4561 17.5449 11.5286 17.3853 11.6055 17.2272C11.682 17.0696 11.7625 16.9134 11.847 16.7593C11.9316 16.6051 12.0201 16.4533 12.1122 16.3034C12.2044 16.1535 12.3005 16.006 12.4002 15.8604C12.4996 15.7152 12.6029 15.5724 12.7099 15.4323C12.8164 15.2918 12.927 15.154 13.0407 15.019C13.1545 14.8839 13.2715 14.7516 13.392 14.622C13.5126 14.4928 13.636 14.366 13.763 14.2427C13.8895 14.1189 14.0197 13.9987 14.1523 13.8812C14.2853 13.7638 14.4211 13.6498 14.5597 13.539C14.6983 13.4281 14.8397 13.3204 14.9839 13.2166C15.1277 13.1124 15.2743 13.0117 15.4233 12.9149C15.5727 12.8177 15.7241 12.724 15.8779 12.6343C16.0318 12.5445 16.1876 12.4582 16.3458 12.3759C16.504 12.2935 16.6642 12.2151 16.8261 12.1405C16.9883 12.0656 17.1521 11.995 17.318 11.9282C17.4838 11.8611 17.6508 11.7982 17.8199 11.7393C17.9885 11.6804 18.1588 11.6257 18.3306 11.575C18.502 11.5243 18.6751 11.4778 18.8489 11.4353C19.0228 11.3927 19.1978 11.3545 19.3737 11.3205C19.5495 11.2862 19.7262 11.2565 19.9036 11.2308C20.0811 11.2054 20.2589 11.1839 20.4376 11.1668C20.6158 11.1496 20.7945 11.1367 20.9739 11.1281C21.153 11.1195 21.332 11.1152 21.5115 11.1152C21.6909 11.1152 21.87 11.1195 22.049 11.1281C22.2285 11.1367 22.4071 11.1496 22.5854 11.1668C22.7641 11.1839 22.9419 11.2054 23.1194 11.2308C23.2968 11.2565 23.4735 11.2862 23.6493 11.3205C23.8252 11.3545 24.0002 11.3927 24.174 11.4353C24.3479 11.4778 24.5209 11.5243 24.6924 11.575C24.8642 11.6257 25.0345 11.6804 25.2031 11.7393C25.3721 11.7982 25.5392 11.8611 25.705 11.9282C25.8708 11.995 26.0347 12.0656 26.1969 12.1405C26.3587 12.2151 26.519 12.2935 26.6772 12.3759C26.8354 12.4582 26.9912 12.5445 27.145 12.6343C27.2989 12.724 27.4503 12.8177 27.5997 12.9149C27.7487 13.0117 27.8953 13.1124 28.0391 13.2166C28.1833 13.3204 28.3247 13.4281 28.4633 13.539C28.6019 13.6498 28.7377 13.7638 28.8707 13.8812C29.0033 13.9987 29.1334 14.1189 29.26 14.2427C29.387 14.366 29.5104 14.4928 29.6309 14.622C29.7515 14.7516 29.8685 14.8839 29.9822 15.019C30.096 15.154 30.2066 15.2918 30.3131 15.4323C30.4201 15.5724 30.5234 15.7152 30.6227 15.8604C30.7225 16.006 30.8186 16.1535 30.9108 16.3034C31.0029 16.4533 31.091 16.6051 31.1759 16.7593C31.2604 16.9134 31.341 17.0696 31.4175 17.2272C31.4944 17.3853 31.5669 17.5449 31.6354 17.7065C31.7043 17.8681 31.7688 18.0309 31.8292 18.1956C31.8893 18.3599 31.9458 18.5258 31.9979 18.6932C32.05 18.8602 32.0976 19.0288 32.1413 19.1982C32.1849 19.3676 32.2242 19.5382 32.2591 19.7095C32.2939 19.8809 32.3247 20.053 32.3512 20.2259C32.3772 20.3988 32.3993 20.5721 32.4169 20.7461C32.4345 20.9198 32.4477 21.0939 32.4565 21.2687C32.4653 21.4432 32.4697 21.6177 32.4697 21.7925Z" stroke="#F2F2F2" stroke-width="1.5" stroke-linecap="round" stroke-linejoin="round"/>
<path d="M34.7176 9.70844C34.7176 9.76353 34.7125 9.81862 34.7017 9.87285C34.6909 9.92708 34.675 9.98002 34.6539 10.0312C34.6329 10.0825 34.607 10.1311 34.5765 10.1771C34.5459 10.2232 34.5111 10.2662 34.4719 10.3054C34.4328 10.3446 34.3902 10.3794 34.3441 10.4104C34.2985 10.4414 34.2499 10.4672 34.1987 10.4888C34.1475 10.5098 34.095 10.5262 34.0408 10.537C33.9861 10.5477 33.9315 10.5533 33.876 10.5533C33.8209 10.5533 33.7658 10.5482 33.7116 10.5374C33.6574 10.5266 33.6045 10.5107 33.5533 10.4896C33.502 10.4685 33.4534 10.4427 33.4074 10.4121C33.3613 10.3812 33.3187 10.3463 33.2796 10.3071C33.2404 10.268 33.2051 10.2254 33.1746 10.1793C33.1436 10.1337 33.1178 10.085 33.0963 10.0338C33.0752 9.9826 33.0593 9.9301 33.0481 9.87544C33.0373 9.8212 33.0322 9.76654 33.0317 9.71102C33.0317 9.6555 33.0373 9.60084 33.0481 9.54661C33.0588 9.49195 33.0748 9.43944 33.0959 9.38822C33.1169 9.337 33.1432 9.28836 33.1737 9.24231C33.2043 9.19626 33.2396 9.15365 33.2787 9.11448C33.3179 9.07532 33.3605 9.04045 33.4061 9.00946C33.4521 8.97891 33.5008 8.95265 33.552 8.93156C33.6032 8.91047 33.6561 8.89455 33.7103 8.88336C33.7645 8.8726 33.8192 8.86743 33.8747 8.86743C33.9302 8.86743 33.9848 8.87303 34.0386 8.88379C34.0928 8.89455 34.1453 8.91047 34.1965 8.93199C34.2473 8.95308 34.2959 8.97891 34.342 9.00946C34.388 9.04045 34.4302 9.07532 34.4693 9.11405C34.5085 9.15322 34.5434 9.1954 34.5743 9.24145C34.6049 9.28707 34.6311 9.33571 34.6522 9.3865C34.6737 9.43772 34.6897 9.49022 34.7008 9.54445C34.7116 9.59825 34.7172 9.65292 34.7176 9.70844Z" stroke="#F2F2F2" stroke-width="1.5" stroke-linecap="round" stroke-linejoin="round"/>
</svg>
