<svg width="971" height="1676" viewBox="0 0 971 1676" fill="none" xmlns="http://www.w3.org/2000/svg">
<path fill-rule="evenodd" clip-rule="evenodd" d="M852.991 2.21928C852.035 3.44077 849.017 34.7983 846.284 71.9047C819.76 432.172 786.561 569.467 703.235 663.49C643.477 730.921 552.663 769.545 393.234 795.337C317.671 807.56 193.911 819.887 44.8735 830.03C3.28126 832.862 -1.92912 834.06 0.495489 840.239C1.85298 843.699 3.62426 843.905 73.0033 848.695C229.616 859.504 358.157 873.872 439.597 889.672C673.654 935.082 761.771 1023.86 806.886 1259.7C821.849 1337.92 832.565 1432.04 845.188 1596.11C848.229 1635.65 851.129 1669.81 851.63 1672.01C852.273 1674.82 853.855 1676 857.009 1676C860.2 1676 861.703 1674.86 862.263 1672.01C862.695 1669.81 865.214 1637.86 867.86 1601.01C891.654 1269.66 923.859 1124.87 994.25 1032.76C1050.59 959.031 1135.66 915.938 1278.56 888.733C1357.69 873.668 1489.39 859.101 1640.11 848.745C1710.38 843.916 1712.16 843.71 1713.52 840.239C1715.83 834.371 1710.54 832.857 1680.94 830.911C1458.8 816.31 1314.44 798.923 1222.7 775.727C1109.11 747.004 1038.73 705.553 989.688 638.492C921.815 545.685 891.636 403.667 866.837 60.3644C864.615 29.6052 862.007 3.44077 861.042 2.21928C860.076 0.999564 858.262 0 857.009 0C855.757 0 853.948 0.999564 852.991 2.21928ZM864.314 171.328C886.373 425.061 916.124 550.069 975.013 636.489C1036.92 727.34 1133.74 775.929 1310.72 804.965C1377.78 815.967 1448.16 823.956 1555.62 832.764C1591.51 835.706 1621.12 838.364 1621.44 838.675C1621.75 838.984 1614.45 839.74 1605.2 840.354C1426.01 852.271 1281.88 872.278 1191.85 897.736C1020.71 946.125 940.818 1039.52 898.936 1240.13C883.706 1313.09 865.557 1461.72 858.505 1571.25C857.781 1582.48 856.957 1590.47 856.672 1589C856.387 1587.54 853.672 1557.18 850.639 1521.54C827.963 1255.07 798.915 1128.93 740.231 1042.09C686.617 962.748 607.957 916.495 474.505 885.833C394.493 867.451 284.157 853.515 121.621 841.263C105.44 840.044 92.4257 838.824 92.7015 838.554C92.9774 838.284 113.567 836.429 138.455 834.431C492.389 806.018 627.285 767.091 713.663 668.447C793.832 576.894 829.713 435.874 854.605 114.515L856.942 84.3326L858.312 101.199C859.066 110.476 861.766 142.034 864.314 171.328Z" fill="#FBC800"/>
</svg>
