<svg width="51" height="52" viewBox="0 0 51 52" fill="none" xmlns="http://www.w3.org/2000/svg">
<path d="M35.9981 15.1963L31.6079 37.6057C31.3905 38.7145 30.173 39.2098 29.3254 38.5494L18.8706 30.1046L30.4124 18.7817C30.4124 18.7817 31.1947 18.0979 30.9773 17.8854C30.7383 17.626 29.8908 18.1921 29.4344 18.5223C28.9996 18.8525 15.3063 28.2411 15.3063 28.2411L8.39414 25.8822C7.61188 25.6223 7.61188 24.4666 8.74207 23.9479L34.2594 13.2854C35.3464 12.6958 36.2376 14.064 35.9981 15.1963Z" fill="#F2F2F2"/>
<path d="M25.5 52C11.4503 52 0 40.3469 0 26C0 11.6749 11.4503 0 25.5 0C39.571 0 51 11.6749 51 26C51 40.3469 39.571 52 25.5 52ZM25.5 1.42381C12.2021 1.42381 1.39643 12.4414 1.39643 26C1.39643 39.5586 12.2021 50.5762 25.5 50.5762C38.7979 50.5762 49.6036 39.5586 49.6036 26C49.6036 12.4414 38.7979 1.42381 25.5 1.42381Z" fill="#F2F2F2"/>
</svg>
