<svg width="125" height="125" viewBox="0 0 125 125" fill="none" xmlns="http://www.w3.org/2000/svg">
<mask id="mask0_194_117" style="mask-type:luminance" maskUnits="userSpaceOnUse" x="24" y="19" width="83" height="84">
<path d="M24.228 19.9924H106.751V102.516H24.228V19.9924Z" fill="white"/>
</mask>
<g mask="url(#mask0_194_117)">
<path d="M65.4896 22.4435C44.089 22.4435 26.6791 39.854 26.6791 61.254C26.6791 82.654 44.089 100.065 65.4896 100.065C86.8902 100.065 104.3 82.654 104.3 61.254C104.3 39.854 86.8902 22.4435 65.4896 22.4435ZM65.4896 102.516C42.7381 102.516 24.228 84.0055 24.228 61.254C24.228 38.5019 42.7381 19.9924 65.4896 19.9924C88.2417 19.9924 106.751 38.5019 106.751 61.254C106.751 84.0055 88.2417 102.516 65.4896 102.516Z" fill="#F6CA46"/>
</g>
<path d="M101.843 61.254C101.843 81.3308 85.5669 97.6062 65.4894 97.6062C45.412 97.6062 29.1372 81.3308 29.1372 61.254C29.1372 41.1766 45.412 24.9005 65.4894 24.9005C85.5669 24.9005 101.843 41.1766 101.843 61.254Z" fill="#B3B3B3"/>
<path d="M78.9529 53.4915C78.9529 60.9272 72.9253 66.9548 65.4896 66.9548C58.0538 66.9548 52.0269 60.9272 52.0269 53.4915C52.0269 46.0564 58.0538 40.0288 65.4896 40.0288C72.9253 40.0288 78.9529 46.0564 78.9529 53.4915Z" fill="#E1E1E1"/>
<path d="M65.4894 69.7399C54.8328 69.7399 45.8979 77.0725 43.4312 86.9653C49.3653 92.0634 57.0705 95.1558 65.4894 95.1558C73.9083 95.1558 81.6141 92.0634 87.5477 86.9653C85.0815 77.0725 76.1466 69.7399 65.4894 69.7399Z" fill="#E1E1E1"/>
</svg>
